<svg xmlns="http://www.w3.org/2000/svg" width="17.341" height="18.918" viewBox="0 0 17.341 18.918">
  <defs>
    <style>
      .cls-1 {
        fill: #a3a3a3;
      }
    </style>
  </defs>
  <g id="bold-text-option" transform="translate(0)">
    <path id="Path_31272" data-name="Path 31272" class="cls-1" d="M34.485,10.161a5.944,5.944,0,0,0-3.288-1.8,13.4,13.4,0,0,0,1.848-.948,4.1,4.1,0,0,0,1.17-1.293,3.209,3.209,0,0,0,.394-1.576,4.309,4.309,0,0,0-.259-1.5,3.771,3.771,0,0,0-.8-1.281A4.648,4.648,0,0,0,32.293.825,7.968,7.968,0,0,0,31.11.345,9.316,9.316,0,0,0,28.758.012h-.911q-.246,0-.5-.006L27.083,0c-.041,0-.1,0-.173.006s-.132.006-.173.006l-.554.012L21.5.185,18.3.259l.049,1.022q1.034.136,1.4.16a1.882,1.882,0,0,1,.85.185q.136.1.148.148a4.406,4.406,0,0,1,.135,1.343q.049,1.823.111,4.976l.025,6.121a19.11,19.11,0,0,1-.111,2.389,1.731,1.731,0,0,1-.259.628,6.838,6.838,0,0,1-1.515.382q-.283.037-.837.148l-.025,1.158q2.943-.1,3.35-.136,2.635-.16,3.67-.136l2.426.049a11.579,11.579,0,0,0,2.439-.135,9.876,9.876,0,0,0,2.5-.739,5.806,5.806,0,0,0,1.724-1.33,4.089,4.089,0,0,0,.875-1.441,6.143,6.143,0,0,0,.357-1.983A4.326,4.326,0,0,0,34.485,10.161ZM24.842,1.429a10.065,10.065,0,0,1,1.6-.16,4.6,4.6,0,0,1,3.141.924A2.947,2.947,0,0,1,30.63,4.5a3.193,3.193,0,0,1-1.1,2.759,5.489,5.489,0,0,1-3.251.8,8.607,8.607,0,0,1-1.342-.086q-.012-.419-.012-.948l.012-1.207q.012-1.933-.074-3.436Q24.842,1.971,24.842,1.429ZM31,15.654a3.158,3.158,0,0,1-1.5,1.392,6.124,6.124,0,0,1-2.66.5,4.476,4.476,0,0,1-1.724-.394,1.587,1.587,0,0,1-.148-.542l-.037-3.325.012-2.131V9.385a4.156,4.156,0,0,1,1.244-.123,8.731,8.731,0,0,1,3.042.394,3.588,3.588,0,0,1,1.737,1.552,4.182,4.182,0,0,1,.5,2.217A4.658,4.658,0,0,1,31,15.654Z" transform="translate(-18.277 0)"/>
  </g>
</svg>
