<svg xmlns="http://www.w3.org/2000/svg" width="11.369" height="8.714" viewBox="0 0 11.369 8.714">
  <defs>
    <style>
      .cls-1 {
        fill: #dbdbdb;
      }
    </style>
  </defs>
  <g id="correct-symbol" transform="translate(0 -51.678)">
    <path id="Path_31192" data-name="Path 31192" class="cls-1" d="M11.164,52.881l-1-1a.708.708,0,0,0-1,0L4.357,56.7,2.2,54.539a.679.679,0,0,0-.5-.205.679.679,0,0,0-.5.205l-1,1a.708.708,0,0,0,0,1l2.655,2.655,1,1a.708.708,0,0,0,1,0l1-1,5.31-5.31a.708.708,0,0,0,0-1Z"/>
  </g>
</svg>
