<svg xmlns="http://www.w3.org/2000/svg" width="26.058" height="25.936" viewBox="0 0 26.058 25.936">
  <defs>
    <style>
      .cls-1 {
        fill: #6e6e6e;
      }
    </style>
  </defs>
  <g id="Group_11099" data-name="Group 11099" transform="translate(-1091 -136)">
    <path id="Path_31170" data-name="Path 31170" class="cls-1" d="M1117.057,263.914c-.87.327-1.73.688-2.615.968a8.947,8.947,0,0,1-1.621.287c-.235.029-.293.11-.29.329.01.746,0,1.493,0,2.239,0,.1,0,.2,0,.325h-.776v-.295c0-.958-.045-1.919.011-2.874a2.98,2.98,0,0,0-1.689-3.019c-1.079-.583-2.172-1.139-3.277-1.716a2.838,2.838,0,0,1-5.528.054c-.021,0-.04-.015-.051-.009-1.17.61-2.355,1.194-3.5,1.843a2.548,2.548,0,0,0-1.354,1.787,4.666,4.666,0,0,0-.065.784c-.006,1.068,0,2.137,0,3.206,0,.075-.007.15-.012.244h-.765v-.3c0-.789,0-1.577,0-2.366,0-.166-.045-.248-.221-.26a10.979,10.979,0,0,1-4.3-1.272v-1.476a2.188,2.188,0,0,1,.591-1.156,3.966,3.966,0,0,1,.7-.5c.666-.353,1.346-.679,2.019-1.017a.653.653,0,0,0,.219-1,2.932,2.932,0,0,1-.649-1.629,4.652,4.652,0,0,1,.12-1.965,2.4,2.4,0,0,1,3.885-.99,2.456,2.456,0,0,1,.814,1.9,4.443,4.443,0,0,1-.268,2,4.646,4.646,0,0,1-.416.695.655.655,0,0,0,.217.985c.3.149.6.307.917.436a.482.482,0,0,0,.348,0c.591-.274,1.181-.554,1.754-.864a.6.6,0,0,0,.282-.4c.038-.48.025-.965.016-1.448a.424.424,0,0,0-.127-.235,4.423,4.423,0,0,1-1.057-2.379,1.29,1.29,0,0,0-.164-.345c-.082-.162-.235-.324-.236-.486a13.232,13.232,0,0,1,.1-3.092,4.045,4.045,0,0,1,7.97.9c.019.678.024,1.357-.006,2.034a2.15,2.15,0,0,1-.234.652,2.214,2.214,0,0,0-.2.438,4.521,4.521,0,0,1-1.036,2.31.628.628,0,0,0-.139.355c-.018.381,0,.763-.009,1.144a.585.585,0,0,0,.373.6c.562.258,1.109.547,1.671.8a.555.555,0,0,0,.395,0c.313-.126.613-.287.917-.437a.654.654,0,0,0,.206-.951,3.089,3.089,0,0,1-.69-1.9,5,5,0,0,1,.138-1.738,2.448,2.448,0,0,1,2.486-1.588,2.237,2.237,0,0,1,2.109,1.8,3.886,3.886,0,0,1-.615,3.456.658.658,0,0,0,.222.918c.687.349,1.374.7,2.068,1.034a2.148,2.148,0,0,1,1.328,1.646c0,.023.025.043.038.065Zm-12-12.146a1.544,1.544,0,0,0-.175.164.877.877,0,0,1-.8.329c-.822-.019-1.645-.01-2.467,0a.845.845,0,0,0-.878.808,5.341,5.341,0,0,0,0,.686.217.217,0,0,0,.111.163c.214.071.257.227.295.426a8.414,8.414,0,0,0,.34,1.475,2.674,2.674,0,0,0,4.572.772,3.822,3.822,0,0,0,.791-2.161c.012-.154.078-.394.18-.433.245-.092.227-.253.223-.437,0-.127,0-.254,0-.382a.836.836,0,0,0-.9-.912A1.477,1.477,0,0,1,1105.054,251.768Zm7.443,12.673c.137-.009.237-.011.336-.024a9.61,9.61,0,0,0,2.732-.75c.648-.294.643-.283.618-.993a1.3,1.3,0,0,0-.806-1.239c-.69-.324-1.362-.685-2.049-1.016a1.284,1.284,0,0,1-.707-.819,1.9,1.9,0,0,0-.084-.194,2.638,2.638,0,0,1-1.72,0c-.072.759-.693.988-1.291,1.3C1111.1,261.532,1112.507,262.426,1112.5,264.441Zm-15.345-5.043a2.713,2.713,0,0,1-1.749.018,1.481,1.481,0,0,1-1.009,1.136c-.645.3-1.272.636-1.912.947a1.009,1.009,0,0,0-.606.736,7.434,7.434,0,0,0-.064,1.06c0,.041.071.1.122.124.476.2.947.414,1.436.575a8.138,8.138,0,0,0,2.094.407c.008-.066.019-.114.02-.163a2.967,2.967,0,0,1,1.1-2.336c.486-.389,1.037-.7,1.561-1.036.079-.052.165-.092.294-.164C1097.832,260.4,1097.262,260.146,1097.151,259.4Zm10.067-7.812a2.959,2.959,0,0,0-1.4-2.423,3.219,3.219,0,0,0-3.6-.049,3.048,3.048,0,0,0-1.477,2.468c.449-.041.873-.094,1.3-.115a7.916,7.916,0,0,1,1.22,0,1.567,1.567,0,0,0,1.629-.646.369.369,0,0,1,.454-.132.384.384,0,0,1,.261.367.416.416,0,0,0,.413.4C1106.416,251.5,1106.816,251.543,1107.218,251.585Zm6.137,4.786c-.017-.236-.019-.474-.053-.707a1.622,1.622,0,0,0-3.224.181c-.012.33-.006.66,0,.99a2.32,2.32,0,0,0,.361,1.2,1.434,1.434,0,0,0,2.411.158A2.773,2.773,0,0,0,1113.355,256.371Zm-18.719,0c.013.252.011.508.044.759a2.518,2.518,0,0,0,.146.538,1.5,1.5,0,0,0,2.9,0,4.212,4.212,0,0,0,.155-1.958,1.641,1.641,0,0,0-1.553-1.42,1.68,1.68,0,0,0-1.65,1.317A6.188,6.188,0,0,0,1094.636,256.371Zm10.96,1.583a3.584,3.584,0,0,1-3.248-.013c0,.2-.005.364,0,.524a1.7,1.7,0,0,1-.342,1.243.3.3,0,0,0-.026.211,2.072,2.072,0,0,0,1.977,1.7,2.1,2.1,0,0,0,2.01-1.538.557.557,0,0,0-.091-.514,1.292,1.292,0,0,1-.216-.559C1105.614,258.671,1105.617,258.33,1105.6,257.954Z" transform="translate(0 -106.131)"/>
    <path id="Path_31171" data-name="Path 31171" class="cls-1" d="M1091,136l8.522,0h4.437v4.819h-.774v-4.01h-11.359v7.306h1.191v1.072c.278-.278.517-.488.721-.727a1,1,0,0,1,.848-.354c1.407.015,2.815.006,4.223.007.084,0,.167.007.272.012v.778h-.292c-1.374,0-2.748,0-4.121,0a.558.558,0,0,0-.444.187c-.407.421-.826.829-1.24,1.243-.144.144-.292.259-.516.163s-.243-.28-.241-.484c0-.355,0-.71,0-1.1H1091Z"/>
    <path id="Path_31172" data-name="Path 31172" class="cls-1" d="M1397.01,214.672v-.781c.086,0,.168-.01.25-.01,1.467,0,2.935,0,4.4,0a.759.759,0,0,1,.605.258c.244.265.5.516.755.773l.06-.031v-1c.345,0,.663-.01.98,0,.187.008.25-.048.249-.242q-.01-2.2,0-4.4c0-.233-.1-.257-.291-.257q-4.046.008-8.091.006h-.572v1.191h-.784v-1.957h10.491v6.443h-1.2c0,.385,0,.738,0,1.092,0,.217-.023.409-.252.5s-.37-.04-.511-.181c-.4-.4-.8-.786-1.184-1.191a.66.66,0,0,0-.529-.225c-1.357.01-2.714.005-4.071.005Z" transform="translate(-288.126 -68.549)"/>
    <path id="Path_31173" data-name="Path 31173" class="cls-1" d="M1147.49,216.367v.729h-8.062v-.729Z" transform="translate(-45.963 -76.277)"/>
    <path id="Path_31174" data-name="Path 31174" class="cls-1" d="M1139.258,185.145v-.734h8.063v.734Z" transform="translate(-45.802 -45.947)"/>
    <path id="Path_31175" data-name="Path 31175" class="cls-1" d="M1139.424,247.758c.1,0,.193-.012.283-.012h5.029c.323,0,.324,0,.324.337,0,.134,0,.268,0,.423h-5.636Z" transform="translate(-45.959 -106.059)"/>
    <path id="Path_31176" data-name="Path 31176" class="cls-1" d="M1458.519,263.431a.246.246,0,0,1,.056-.025c.716-.087.8.006.688.752h-.744Z" transform="translate(-348.815 -120.897)"/>
    <path id="Path_31177" data-name="Path 31177" class="cls-1" d="M1490.482,263.545a.617.617,0,0,1,.088-.022c.7-.056.766.016.652.754h-.74Z" transform="translate(-379.151 -121.019)"/>
    <path id="Path_31178" data-name="Path 31178" class="cls-1" d="M1523.147,264.485h-.757v-.761c.213,0,.421-.009.627.007a.2.2,0,0,1,.124.143C1523.156,264.066,1523.147,264.26,1523.147,264.485Z" transform="translate(-409.435 -121.221)"/>
    <path id="Path_31179" data-name="Path 31179" class="cls-1" d="M1434.572,598.877h.754v2.378h-.754Z" transform="translate(-326.086 -439.32)"/>
    <path id="Path_31180" data-name="Path 31180" class="cls-1" d="M1243.586,600.9h-.75a1.543,1.543,0,0,1-.024-.192c0-.652,0-1.3,0-1.956,0-.185.051-.255.243-.25.651.016.526-.063.535.512.008.533,0,1.067,0,1.6Z" transform="translate(-144.08 -438.959)"/>
  </g>
</svg>
