<svg xmlns="http://www.w3.org/2000/svg" width="22" height="22" viewBox="0 0 22 22">
  <defs>
    <style>
      .cls-1 {
        fill: #dbdbdb;
      }

      .cls-2 {
        fill: #fff;
      }
    </style>
  </defs>
  <g id="Group_11291" data-name="Group 11291" transform="translate(0 -0.414)">
    <circle id="Ellipse_849" data-name="Ellipse 849" class="cls-1" cx="11" cy="11" r="11" transform="translate(0 0.414)"/>
    <g id="icon" transform="translate(7.24 5.493)">
      <path id="Path_31197" data-name="Path 31197" class="cls-2" d="M10.35.536H9.37L9.7.8a2.249,2.249,0,0,1,.371.4,2.469,2.469,0,0,1,.3.558,2.007,2.007,0,0,1,.123.725,1.916,1.916,0,0,1-.117.695,2.218,2.218,0,0,1-.3.548,2.413,2.413,0,0,1-.422.436l-.491.376c-.1.1-.2.2-.3.312a.587.587,0,0,0-.147.409.483.483,0,0,0,.172.389,2.952,2.952,0,0,0,.316.233l.566.41c.156.134.3.269.443.407a3.151,3.151,0,0,1,.377.443,2.048,2.048,0,0,1,.26.526,2.126,2.126,0,0,1,.092.66,2.165,2.165,0,0,1-.255,1.013,2.691,2.691,0,0,1-.758.884,3.939,3.939,0,0,1-1.246.626,5.711,5.711,0,0,1-1.716.235,5.558,5.558,0,0,1-1.485-.175,3.468,3.468,0,0,1-1.052-.466,1.978,1.978,0,0,1-.626-.663A1.6,1.6,0,0,1,3.6,9a2,2,0,0,1,.255-.9,2.209,2.209,0,0,1,.937-.879A4.056,4.056,0,0,1,5.568,6.9a6.707,6.707,0,0,1,.814-.2q.4-.07.766-.1c.241-.019.45-.035.622-.045a4.513,4.513,0,0,1-.3-.421,1.072,1.072,0,0,1-.136-.57.9.9,0,0,1,.046-.31c.03-.084.063-.168.1-.251-.078.01-.159.017-.244.022s-.17.008-.251.008a2.876,2.876,0,0,1-1.11-.2,2.625,2.625,0,0,1-.82-.517,2.089,2.089,0,0,1-.5-.735,2.184,2.184,0,0,1-.169-.839,2.42,2.42,0,0,1,.243-1.023A2.693,2.693,0,0,1,5.365.8,3.31,3.31,0,0,1,6.778.138,7.479,7.479,0,0,1,8.146,0h3.211ZM9.97,8.888a1.3,1.3,0,0,0-.091-.495,1.532,1.532,0,0,0-.274-.432,2.917,2.917,0,0,0-.519-.442l-.762-.532a.522.522,0,0,0-.164-.031H7.968c-.04,0-.115,0-.226.007S7.5,6.979,7.34,7s-.323.041-.5.07a4.039,4.039,0,0,0-.511.119c-.091.03-.209.075-.357.137a1.836,1.836,0,0,0-.443.265,1.576,1.576,0,0,0-.378.44,1.213,1.213,0,0,0-.16.643,1.367,1.367,0,0,0,.188.709,1.8,1.8,0,0,0,.549.562,2.628,2.628,0,0,0,.864.368,4.665,4.665,0,0,0,1.127.125A2.739,2.739,0,0,0,9.4,10,1.346,1.346,0,0,0,9.97,8.888ZM8.727,4.2a1.062,1.062,0,0,0,.323-.556,2.664,2.664,0,0,0,.057-.494A3.5,3.5,0,0,0,8.989,2.3a3.238,3.238,0,0,0-.358-.861,2.4,2.4,0,0,0-.6-.673A1.33,1.33,0,0,0,7.2.492a1.434,1.434,0,0,0-.6.136,1.531,1.531,0,0,0-.489.344,1.236,1.236,0,0,0-.271.5,2.289,2.289,0,0,0-.07.563,3.372,3.372,0,0,0,.113.809,2.986,2.986,0,0,0,.356.839,2.36,2.36,0,0,0,.6.658A1.4,1.4,0,0,0,7.7,4.61,1.5,1.5,0,0,0,8.27,4.5,1.32,1.32,0,0,0,8.727,4.2Z" transform="translate(-3.603 0)"/>
    </g>
  </g>
</svg>
