<svg id="help" xmlns="http://www.w3.org/2000/svg" width="16" height="16" viewBox="0 0 16 16">
  <defs>
    <style>
      .cls-1 {
        fill: #a3a3a3;
      }
    </style>
  </defs>
  <g id="Group_11301" data-name="Group 11301">
    <g id="Group_11300" data-name="Group 11300">
      <path id="Path_31281" data-name="Path 31281" class="cls-1" d="M222.495,343.22a.839.839,0,0,0,0,1.677.839.839,0,0,0,0-1.677Z" transform="translate(-214.74 -332.494)"/>
      <path id="Path_31282" data-name="Path 31282" class="cls-1" d="M186.168,140c-1.471,0-2.146.871-2.146,1.46a.625.625,0,0,0,.654.621c.588,0,.349-.839,1.46-.839.545,0,.98.24.98.741,0,.588-.61.926-.969,1.231a1.994,1.994,0,0,0-.73,1.656c0,.566.152.73.6.73.534,0,.643-.24.643-.447a1.368,1.368,0,0,1,.61-1.362,2.788,2.788,0,0,0,1.22-1.993C188.488,140.775,187.562,140,186.168,140Z" transform="translate(-178.271 -135.627)"/>
      <path id="Path_31283" data-name="Path 31283" class="cls-1" d="M8,0A8,8,0,0,0,0,8v7.375A.625.625,0,0,0,.625,16H8A8,8,0,0,0,8,0ZM8,14.75H1.25V8A6.75,6.75,0,1,1,8,14.75Z"/>
    </g>
  </g>
</svg>
