<svg xmlns="http://www.w3.org/2000/svg" width="18.867" height="18.667" viewBox="0 0 18.867 18.667">
  <defs>
    <style>
      .cls-1 {
        fill: #a3a3a3;
      }
    </style>
  </defs>
  <g id="indent-all" transform="translate(-7.466 -42.668)">
    <g id="Group_11295" data-name="Group 11295" transform="translate(-0.001 42.668)">
      <g id="Group_11294" data-name="Group 11294" transform="translate(0 0)">
        <path id="Path_31274" data-name="Path 31274" class="cls-1" d="M172.069,42.668h-.933a.466.466,0,0,0-.467.467V60.868a.466.466,0,0,0,.467.467h.933a.466.466,0,0,0,.467-.467V43.135A.466.466,0,0,0,172.069,42.668Z" transform="translate(-163.202 -42.668)"/>
        <path id="Path_31280" data-name="Path 31280" class="cls-1" d="M172.069,42.668h-.933a.466.466,0,0,0-.467.467V60.868a.466.466,0,0,0,.467.467h.933a.466.466,0,0,0,.467-.467V43.135A.466.466,0,0,0,172.069,42.668Z" transform="translate(-146.202 -42.668)"/>
        <path id="Path_31276" data-name="Path 31276" class="cls-1" d="M266.736,298.668H256.469a.466.466,0,0,0-.467.467v.933a.466.466,0,0,0,.467.467h10.267a.466.466,0,0,0,.467-.467v-.933A.466.466,0,0,0,266.736,298.668Z" transform="translate(-244.802 -287.468)"/>
        <path id="Path_31277" data-name="Path 31277" class="cls-1" d="M266.736,170.668H256.469a.466.466,0,0,0-.467.467v.933a.466.466,0,0,0,.467.467h10.267a.466.466,0,0,0,.467-.467v-.933A.466.466,0,0,0,266.736,170.668Z" transform="translate(-244.802 -165.068)"/>
        <path id="Path_31278" data-name="Path 31278" class="cls-1" d="M266.736,42.668H256.469a.466.466,0,0,0-.467.467v.933a.466.466,0,0,0,.467.467h10.267a.466.466,0,0,0,.467-.467v-.933A.466.466,0,0,0,266.736,42.668Z" transform="translate(-244.802 -42.668)"/>
        <path id="Path_31279" data-name="Path 31279" class="cls-1" d="M266.736,426.668H256.469a.466.466,0,0,0-.467.467v.933a.466.466,0,0,0,.467.467h10.267a.466.466,0,0,0,.467-.467v-.933A.466.466,0,0,0,266.736,426.668Z" transform="translate(-244.802 -409.868)"/>
      </g>
    </g>
  </g>
</svg>
