<svg xmlns="http://www.w3.org/2000/svg" width="15.054" height="18.891" viewBox="0 0 15.054 18.891">
  <defs>
    <style>
      .cls-1 {
        fill: #a3a3a3;
      }
    </style>
  </defs>
  <g id="italic-text" transform="translate(0)">
    <path id="Path_31273" data-name="Path 31273" class="cls-1" d="M24.911.147a.387.387,0,0,0-.3-.147H14.278A.386.386,0,0,0,13.9.3l-.425,1.76a.386.386,0,0,0,.375.477h3.63l-3.32,13.828h-3.41a.386.386,0,0,0-.375.3l-.426,1.76a.386.386,0,0,0,.375.477h10.33a.386.386,0,0,0,.375-.3l.425-1.759a.386.386,0,0,0-.375-.477H17.506l3.32-13.828h3.356a.386.386,0,0,0,.375-.3l.426-1.76A.386.386,0,0,0,24.911.147Z" transform="translate(-9.94)"/>
  </g>
</svg>
