<svg xmlns="http://www.w3.org/2000/svg" width="15.54" height="15.539" viewBox="0 0 15.54 15.539">
  <defs>
    <style>
      .cls-1 {
        fill: #6e6e6e;
      }
    </style>
  </defs>
  <g id="language-2" transform="translate(0)">
    <path id="Path_31262" data-name="Path 31262" class="cls-1" d="M10.35,13.718l2.428,1.821V13.718H15.54V5.493H10.046V0H0V8.225H2.762v1.821L5.19,8.225h.3v5.493Zm4.279-.911H11.867v.911l-1.214-.911H6.4V6.4h8.225ZM4.887,7.314l-1.214.911V7.314H.911V.911H9.136V5.493H7.141l-2.1-4.2L2.81,5.745l.814.407.557-1.114H5.9l.228.455H5.494V7.314ZM5.44,4.128h-.8l.4-.8Zm0,0"/>
    <path id="Path_31263" data-name="Path 31263" class="cls-1" d="M272.638,244.017a2.358,2.358,0,0,1-1.183.625v.911a3.219,3.219,0,0,0,1.821-.884,3.22,3.22,0,0,0,1.821.884v-.911a2.357,2.357,0,0,1-1.183-.625,3.331,3.331,0,0,0,.664-1.2h.974v-.911h-1.821V241h-.911v.911H271v.911h.974A3.331,3.331,0,0,0,272.638,244.017Zm.638-.658a2.806,2.806,0,0,1-.336-.538h.672A2.807,2.807,0,0,1,273.276,243.359Zm0,0" transform="translate(-262.775 -233.686)"/>
  </g>
</svg>
