<svg xmlns="http://www.w3.org/2000/svg" width="18.09" height="18.801" viewBox="0 0 18.09 18.801">
  <defs>
    <style>
      .cls-1 {
        fill: #a3a3a3;
        stroke: #a3a3a3;
        stroke-width: 0.3px;
      }
    </style>
  </defs>
  <g id="picture-3" transform="translate(0.15 0.15)">
    <path id="Path_31270" data-name="Path 31270" class="cls-1" d="M10.412,16.963a1.981,1.981,0,1,0-1.981-1.981A1.983,1.983,0,0,0,10.412,16.963Zm0-3.251a1.27,1.27,0,1,1-1.27,1.27A1.271,1.271,0,0,1,10.412,13.712Z" transform="translate(-5.787 -8.375)"/>
    <path id="Path_31271" data-name="Path 31271" class="cls-1" d="M1,0V18.5H18.79V0Zm.712.712H18.078v9.509L14.405,6.854a.365.365,0,0,0-.256-.093.356.356,0,0,0-.247.116l-3.485,3.817L8.73,9.005a.356.356,0,0,0-.487-.016L2.289,14.232H1.712ZM18.078,17.79H1.712V14.943H18.078ZM3.366,14.232l5.1-4.487,3.665,3.665a.356.356,0,0,0,.5-.5L10.92,11.2l3.267-3.577,3.891,3.567v3.046Z" transform="translate(-1)"/>
  </g>
</svg>
