<svg xmlns="http://www.w3.org/2000/svg" width="27.15" height="27.156" viewBox="0 0 27.15 27.156">
  <defs>
    <style>
      .cls-1 {
        fill: #1bb17f;
      }
    </style>
  </defs>
  <g id="thinking" transform="translate(-0.052 0)">
    <g id="Group_11084" data-name="Group 11084" transform="translate(8.651 9.053)">
      <g id="Group_11083" data-name="Group 11083">
        <path id="Path_31159" data-name="Path 31159" class="cls-1" d="M153.862,160.021a1.81,1.81,0,1,0,1.81,1.81A1.81,1.81,0,0,0,153.862,160.021Zm0,2.716a.905.905,0,1,1,.905-.905A.905.905,0,0,1,153.862,162.737Z" transform="translate(-152.052 -160.021)"/>
      </g>
    </g>
    <g id="Group_11086" data-name="Group 11086" transform="translate(2.316 0.002)">
      <g id="Group_11085" data-name="Group 11085">
        <path id="Path_31160" data-name="Path 31160" class="cls-1" d="M53.734.063a10.171,10.171,0,0,0-9.9,5.657c-.644,1.305-3.609,9.651-3.735,10.006a.453.453,0,0,0,.426.6h2.716v-.905H41.171c.709-1.986,2.955-8.243,3.479-9.3A9.265,9.265,0,0,1,53.669.963a9.076,9.076,0,0,1,1.248.178l.19-.883A9.955,9.955,0,0,0,53.734.063Z" transform="translate(-40.078 -0.034)"/>
      </g>
    </g>
    <g id="Group_11088" data-name="Group 11088" transform="translate(8.651 12.559)">
      <g id="Group_11087" data-name="Group 11087">
        <path id="Path_31161" data-name="Path 31161" class="cls-1" d="M167.584,221.989a9.261,9.261,0,0,1-.3.921,30.024,30.024,0,0,0-2.111,10.687v.275h-10.41v-1.81h1.8a2.273,2.273,0,0,0,2.176-1.641l1.435-5.024-.87-.249-1.435,5.024a1.365,1.365,0,0,1-1.306.985h-4.518v.905h1.81v2.263a.453.453,0,0,0,.453.453H165.63a.453.453,0,0,0,.453-.453V233.6a29.135,29.135,0,0,1,2.051-10.364,10.146,10.146,0,0,0,.326-1.012Z" transform="translate(-152.052 -221.989)"/>
      </g>
    </g>
    <g id="Group_11090" data-name="Group 11090" transform="translate(0.052 17.199)">
      <g id="Group_11089" data-name="Group 11089">
        <path id="Path_31162" data-name="Path 31162" class="cls-1" d="M7.972,304.021H2.315a2.266,2.266,0,0,0-2.263,2.263v7.241a.453.453,0,0,0,.453.453H6.162A6.93,6.93,0,0,0,7.3,309.026L7.269,309a1.584,1.584,0,0,0,.324-1.81h.379a1.584,1.584,0,1,0,0-3.168Zm0,2.263h-4.3a.453.453,0,1,0,0,.905H6.162a.679.679,0,1,1,0,1.358H3.673a.453.453,0,0,0,0,.905H6.162a.679.679,0,0,1,0,1.358H3.673a.453.453,0,0,0,0,.905H6.162a.679.679,0,1,1,0,1.358H.957v-6.789a1.358,1.358,0,0,1,1.358-1.358H7.972a.679.679,0,0,1,0,1.358Z" transform="translate(-0.052 -304.021)"/>
      </g>
    </g>
    <g id="Group_11092" data-name="Group 11092" transform="translate(14.54 0)">
      <g id="Group_11091" data-name="Group 11091">
        <path id="Path_31163" data-name="Path 31163" class="cls-1" d="M268.409,3.4A2.973,2.973,0,0,0,265.261,2a2.949,2.949,0,0,0-5.585,0A2.971,2.971,0,0,0,256.528,3.4a2.907,2.907,0,0,0,.35,3.394,2.907,2.907,0,0,0-.35,3.394,2.972,2.972,0,0,0,3.148,1.393,2.95,2.95,0,0,0,5.585,0,2.971,2.971,0,0,0,3.148-1.393,2.907,2.907,0,0,0-.35-3.394A2.908,2.908,0,0,0,268.409,3.4Zm-.781,6.336a2.059,2.059,0,0,1-2.527.86.453.453,0,0,0-.615.356,2.041,2.041,0,0,1-4.033,0,.452.452,0,0,0-.615-.356,2.06,2.06,0,0,1-2.528-.86,2,2,0,0,1,.507-2.58.453.453,0,0,0,0-.716,2,2,0,0,1-.507-2.588,2.061,2.061,0,0,1,2.528-.86.453.453,0,0,0,.615-.356,2.041,2.041,0,0,1,4.033,0,.453.453,0,0,0,.615.356,2.06,2.06,0,0,1,2.528.86,2,2,0,0,1-.507,2.582.453.453,0,0,0,0,.716A2,2,0,0,1,267.628,9.732Z" transform="translate(-256.137 0)"/>
      </g>
    </g>
    <g id="Group_11094" data-name="Group 11094" transform="translate(20.418 6.337)">
      <g id="Group_11093" data-name="Group 11093">
        <rect id="Rectangle_3022" data-name="Rectangle 3022" class="cls-1" width="0.905" height="0.905"/>
      </g>
    </g>
    <g id="Group_11096" data-name="Group 11096" transform="translate(18.608 6.337)">
      <g id="Group_11095" data-name="Group 11095">
        <rect id="Rectangle_3023" data-name="Rectangle 3023" class="cls-1" width="0.905" height="0.905"/>
      </g>
    </g>
    <g id="Group_11098" data-name="Group 11098" transform="translate(22.229 6.337)">
      <g id="Group_11097" data-name="Group 11097">
        <rect id="Rectangle_3024" data-name="Rectangle 3024" class="cls-1" width="0.905" height="0.905"/>
      </g>
    </g>
  </g>
</svg>
