<svg xmlns="http://www.w3.org/2000/svg" width="18.499" height="18.501" viewBox="0 0 18.499 18.501">
  <defs>
    <style>
      .cls-1 {
        fill: #a3a3a3;
      }
    </style>
  </defs>
  <g id="unlink" transform="translate(-0.003 -0.001)">
    <path id="Path_31268" data-name="Path 31268" class="cls-1" d="M30.613,1.28a4.381,4.381,0,0,0-6.187,0L21.332,4.374a.673.673,0,0,0,.952.952l3.094-3.094a3.029,3.029,0,0,1,4.284,4.284l-4.045,4.046a3.034,3.034,0,0,1-4.284,0,.673.673,0,1,0-.952.952,4.38,4.38,0,0,0,6.188,0l4.046-4.046a4.386,4.386,0,0,0,0-6.188Z" transform="translate(-13.388 0)"/>
    <path id="Path_31269" data-name="Path 31269" class="cls-1" d="M9.134,25.382,6.516,28a3.029,3.029,0,0,1-4.284-4.284L6.04,19.908a3.04,3.04,0,0,1,4.284,0,.673.673,0,1,0,.952-.952,4.381,4.381,0,0,0-6.188,0L1.28,22.765a4.375,4.375,0,0,0,6.188,6.187l2.618-2.618a.673.673,0,1,0-.951-.952Z" transform="translate(0 -11.727)"/>
  </g>
</svg>
