<svg xmlns="http://www.w3.org/2000/svg" width="26.074" height="18.501" viewBox="0 0 26.074 18.501">
  <defs>
    <style>
      .cls-1 {
        fill: #a3a3a3;
      }
    </style>
  </defs>
  <path id="video-camera" class="cls-1" d="M25.28,12.006a1.716,1.716,0,0,0-1.65-.113l-3.5,1.616v-.06a1.514,1.514,0,0,0-1.513-1.513H16.468V9.649A1.374,1.374,0,0,0,15.1,8.277H.457a.457.457,0,1,0,0,.915H15.1a.458.458,0,0,1,.457.457v2.287H1.513A1.515,1.515,0,0,0,0,13.449V25.062a1.514,1.514,0,0,0,1.513,1.513h17.1a1.514,1.514,0,0,0,1.513-1.513V25l3.5,1.616a1.723,1.723,0,0,0,2.445-1.564v-11.6A1.715,1.715,0,0,0,25.28,12.006ZM19.213,25.062a.6.6,0,0,1-.6.6H1.513a.6.6,0,0,1-.6-.6V13.449a.6.6,0,0,1,.6-.6h17.1a.6.6,0,0,1,.6.6V25.062Zm5.947-.008a.807.807,0,0,1-1.146.733L20.128,24V14.517l3.885-1.793a.808.808,0,0,1,1.147.734Z" transform="translate(0 -8.277)"/>
</svg>
