<svg xmlns="http://www.w3.org/2000/svg" width="23.444" height="23.406" viewBox="0 0 23.444 23.406">
  <defs>
    <style>
      .cls-1 {
        fill: #1bb17f;
        stroke: #1bb17f;
        stroke-width: 0.5px;
      }
    </style>
  </defs>
  <g id="worldwide" transform="translate(0.283 0.2)">
    <g id="Group_11280" data-name="Group 11280" transform="translate(0 0.05)">
      <path id="Path_31266" data-name="Path 31266" class="cls-1" d="M11.46.05A11.453,11.453,0,0,0,.929,7l-.143.047.055.166A11.452,11.452,0,1,0,11.46.05Zm8.984,17.228-.588-.588V15.321a.381.381,0,0,0-.038-.171l-1.489-2.974V10.74a.382.382,0,0,0-.17-.318l-1.145-.764a.382.382,0,0,0-.305-.053l-1.4.35L12.949,8.945l-.324-2.271.9-.9h1.928l.649.975a.382.382,0,0,0,.255.165l2.291.382a.379.379,0,0,0,.183-.015l2.11-.7A10.651,10.651,0,0,1,20.443,17.278ZM18.869,3.812l-.621.414L16.517,3.88l-1.123-.374a.375.375,0,0,0-.213-.008l-1.419.355-.622-.207.461-.922h1.291a.382.382,0,0,0,.171-.04l1.321-.66A10.729,10.729,0,0,1,18.869,3.812ZM7.275,1.666l.916.611a.381.381,0,0,0,.149.059l1.85.308-.181.54-.964.322a.382.382,0,0,0-.207.165L7.743,5.5,5.982,6.555l-2.6.371a.382.382,0,0,0-.328.378V8.449a.382.382,0,0,0,.112.27l.652.652v.656L2.233,8.967,1.657,7.239A10.751,10.751,0,0,1,7.275,1.666ZM6.188,14.183l-1.726-.346-.641-1.279v-.9l1.422-1.422.526,1.053a.382.382,0,0,0,.342.211H8.568L9.6,13.227a.382.382,0,0,0,.327.185H10.99l-.267,1.339L9.278,16.2a.382.382,0,0,0-.112.27v.954L7.791,18.451a.382.382,0,0,0-.153.305v1.379l-.475-.157L6.493,18.3V14.557A.382.382,0,0,0,6.188,14.183ZM5.04,20.052A10.687,10.687,0,0,1,1.233,8.382l.317.951a.382.382,0,0,0,.15.2L3.6,10.8l-.434.434a.382.382,0,0,0-.112.27v1.145a.382.382,0,0,0,.04.171l.764,1.527a.382.382,0,0,0,.267.2l1.6.32v3.505a.382.382,0,0,0,.027.142l.764,1.909a.382.382,0,0,0,.234.22l1.145.382a.375.375,0,0,0,.119.02.382.382,0,0,0,.382-.382V18.948l1.374-1.031a.382.382,0,0,0,.153-.305v-.987l1.415-1.415a.382.382,0,0,0,.1-.2l.382-1.909a.382.382,0,0,0-.374-.457H10.145L9.111,10.925a.382.382,0,0,0-.327-.185H6.347L5.691,9.424a.382.382,0,0,0-.281-.206.374.374,0,0,0-.331.107l-.5.494V9.212a.382.382,0,0,0-.112-.27l-.652-.652V7.635L6.166,7.3a.384.384,0,0,0,.142-.051L8.217,6.1a.382.382,0,0,0,.131-.131L9.42,4.185l1.011-.337a.378.378,0,0,0,.241-.241l.382-1.145a.382.382,0,0,0-.3-.5L8.546,1.6l-.388-.259a10.66,10.66,0,0,1,7.342.273l-.7.348H13.365a.382.382,0,0,0-.344.211L12.258,3.7a.382.382,0,0,0,.221.533l1.145.382a.375.375,0,0,0,.213.008l1.419-.355,1.04.346a.281.281,0,0,0,.046.012l1.909.382a.379.379,0,0,0,.287-.057l.869-.58A10.77,10.77,0,0,1,20.555,5.9l-1.878.626-2.034-.339-.672-1.008a.382.382,0,0,0-.316-.17H13.365a.382.382,0,0,0-.27.112L11.95,6.27a.382.382,0,0,0-.108.324l.382,2.672a.382.382,0,0,0,.229.3l2.672,1.145a.377.377,0,0,0,.243.019l1.363-.341.833.557v1.323a.381.381,0,0,0,.038.171l1.489,2.974v1.437a.382.382,0,0,0,.112.27l.8.8A10.687,10.687,0,0,1,5.04,20.052Z" transform="translate(0 -0.05)"/>
    </g>
  </g>
</svg>
