<svg xmlns="http://www.w3.org/2000/svg" width="148.943" height="55.707" viewBox="0 0 148.943 55.707">
  <defs>
    <style>
      .cls-1 {
        fill: #1bb17f;
      }
    </style>
  </defs>
  <g id="Group_11321" data-name="Group 11321" transform="translate(94.209 -1171.777)">
    <g id="Group_10296" data-name="Group 10296" transform="translate(-19.035 1171.777)">
      <path id="Path_30544" data-name="Path 30544" class="cls-1" d="M1216.685,1209.82l-7.722-7.244a12,12,0,1,0-17.5-16.421l-7.722-7.244a22.589,22.589,0,1,1,32.948,30.91Z" transform="translate(-1183.737 -1171.777)"/>
    </g>
    <g id="Group_10297" data-name="Group 10297" transform="translate(9.557 1194.177)">
      <path id="Path_30545" data-name="Path 30545" class="cls-1" d="M1692.38,1575.163a22.574,22.574,0,0,1-22.589-22.589h10.589a12,12,0,1,0,24,0h10.588a22.574,22.574,0,0,1-22.589,22.589Z" transform="translate(-1669.791 -1552.574)"/>
    </g>
    <g id="Group_10298" data-name="Group 10298" transform="translate(-25.032 1194.177)">
      <path id="Path_30546" data-name="Path 30546" class="cls-1" d="M1104.38,1575.163a22.574,22.574,0,0,1-22.589-22.589h10.588a12,12,0,1,0,24,0h10.588a22.574,22.574,0,0,1-22.589,22.589Z" transform="translate(-1081.791 -1552.574)"/>
    </g>
    <g id="Group_10299" data-name="Group 10299" transform="translate(-59.62 1194.177)">
      <path id="Path_30547" data-name="Path 30547" class="cls-1" d="M516.38,1575.163a22.574,22.574,0,0,1-22.589-22.589h10.588a12,12,0,1,0,24,0h10.588a22.574,22.574,0,0,1-22.589,22.589Z" transform="translate(-493.791 -1552.574)"/>
    </g>
    <g id="Group_10300" data-name="Group 10300" transform="translate(-94.209 1194.177)">
      <path id="Path_30548" data-name="Path 30548" class="cls-1" d="M-71.62,1575.163a22.45,22.45,0,0,1-8.794-1.777,22.506,22.506,0,0,1-7.178-4.839,22.51,22.51,0,0,1-4.839-7.178,22.454,22.454,0,0,1-1.777-8.794h10.588a12.014,12.014,0,0,0,12,12,12.014,12.014,0,0,0,12-12h10.588a22.454,22.454,0,0,1-1.777,8.794,22.51,22.51,0,0,1-4.839,7.178,22.506,22.506,0,0,1-7.178,4.839A22.45,22.45,0,0,1-71.62,1575.163Z" transform="translate(94.209 -1552.574)"/>
    </g>
    <g id="Group_10301" data-name="Group 10301" transform="translate(35.332 1219.435)">
      <circle id="Ellipse_822" data-name="Ellipse 822" class="cls-1" cx="4.025" cy="4.025" r="4.025" transform="translate(0 0)"/>
    </g>
    <g id="Group_10302" data-name="Group 10302" transform="translate(25.675 1219.435)">
      <circle id="Ellipse_823" data-name="Ellipse 823" class="cls-1" cx="4.025" cy="4.025" r="4.025" transform="translate(0 0)"/>
    </g>
    <g id="Group_10303" data-name="Group 10303" transform="translate(-36.228 1219.435)">
      <circle id="Ellipse_824" data-name="Ellipse 824" class="cls-1" cx="4.025" cy="4.025" r="4.025" transform="translate(0 0)"/>
    </g>
    <g id="Group_10304" data-name="Group 10304" transform="translate(-8.269 1219.435)">
      <circle id="Ellipse_825" data-name="Ellipse 825" class="cls-1" cx="4.025" cy="4.025" r="4.025" transform="translate(0 0)"/>
    </g>
    <g id="Group_10305" data-name="Group 10305" transform="translate(-77.447 1219.435)">
      <circle id="Ellipse_826" data-name="Ellipse 826" class="cls-1" cx="4.025" cy="4.025" r="4.025" transform="translate(0 0)"/>
    </g>
    <g id="Group_10306" data-name="Group 10306" transform="translate(-45.885 1219.435)">
      <circle id="Ellipse_827" data-name="Ellipse 827" class="cls-1" cx="4.025" cy="4.025" r="4.025" transform="translate(0 0)"/>
    </g>
    <g id="Group_10307" data-name="Group 10307" transform="translate(32.933 1173.694)">
      <path id="Path_30549" data-name="Path 30549" class="cls-1" d="M2080.256,1210.566a1.964,1.964,0,0,0-.376-.543,9.619,9.619,0,0,0,.5-2.785v-.292a1.109,1.109,0,0,0-.028-.265,2.513,2.513,0,0,0-1.114-2.061,1.859,1.859,0,0,0-.975-.251,2.379,2.379,0,0,0-.487.056,2.756,2.756,0,0,0-.571.195h.028a4.383,4.383,0,0,0-1.073.627,8.132,8.132,0,0,0-1.016.961,5.952,5.952,0,0,0-1.225,2.172,3.871,3.871,0,0,0-.083.752,3.21,3.21,0,0,0,.055.6,1.5,1.5,0,0,0,.2.515,3.482,3.482,0,0,0,.794,1.086,7.174,7.174,0,0,0,1.128.836q-.585.5-1.435,1.1t-1.782,1.211q-.933.613-1.866,1.2t-1.685,1.058h.027l-1.281.78q-.807.5-.807.919a.588.588,0,0,0,.181.432.558.558,0,0,0,.4.181l.417-.056q1.728-.417,3.134-.891a18.659,18.659,0,0,0,2.618-1.1,11.838,11.838,0,0,0,2.242-1.5,15.124,15.124,0,0,0,2.005-2.1l.39.334a.581.581,0,0,0,.515.181.558.558,0,0,0,.432-.292q.251-.446.432-.766a3.381,3.381,0,0,0,.265-.571v.028a2.271,2.271,0,0,0,.18-.557,2.829,2.829,0,0,0,.042-.473A1.967,1.967,0,0,0,2080.256,1210.566Zm-2.884-1.413a.7.7,0,0,1-.7-.7.687.687,0,0,1,.065-.293l-.006,0,.016-.018a.7.7,0,1,1,.623,1.013Z" transform="translate(-2067.18 -1204.37)"/>
    </g>
  </g>
</svg>
