<svg xmlns="http://www.w3.org/2000/svg" width="15.531" height="15.493" viewBox="0 0 15.531 15.493">
  <defs>
    <style>
      .cls-1 {
        fill: #6e6e6e;
      }
    </style>
  </defs>
  <path id="address" class="cls-1" d="M6.2,13.911v1.573l-.38-.307a25.5,25.5,0,0,1-2.875-2.811C.992,10.12,0,8.1,0,6.375V6.2a6.2,6.2,0,0,1,12.406,0v.171c0,.145-.008.293-.022.442L11.172,5.71A4.993,4.993,0,0,0,1.21,6.2v.171C1.21,9.3,4.977,12.836,6.2,13.911Zm3.722-.869h1.816V11.226H9.925ZM6.2,3.631A2.572,2.572,0,1,1,3.631,6.2,2.575,2.575,0,0,1,6.2,3.631Zm0,1.21A1.362,1.362,0,1,0,7.565,6.2,1.363,1.363,0,0,0,6.2,4.841Zm8.512,7.378-.34-.31v1.943a1.643,1.643,0,0,1-1.641,1.641H8.9a1.643,1.643,0,0,1-1.641-1.641V11.909l-.34.31L6.1,11.325l4.713-4.3,4.713,4.3ZM13.164,10.8,10.818,8.664,8.471,10.8v3.047a.431.431,0,0,0,.431.431h3.832a.431.431,0,0,0,.431-.431Zm0,0" transform="translate(0)"/>
</svg>
