<svg id="writing" xmlns="http://www.w3.org/2000/svg" width="12.308" height="13.733" viewBox="0 0 12.308 13.733">
  <defs>
    <style>
      .cls-1 {
        fill: #9a9a9a;
      }
    </style>
  </defs>
  <g id="Group_11165" data-name="Group 11165" transform="translate(0)">
    <g id="Group_11164" data-name="Group 11164" transform="translate(0)">
      <path id="Path_31203" data-name="Path 31203" class="cls-1" d="M113.057,200.536a.536.536,0,0,0-.536-.536H107a.536.536,0,1,0,0,1.073h5.525A.536.536,0,0,0,113.057,200.536Z" transform="translate(-104.316 -194.636)"/>
      <path id="Path_31204" data-name="Path 31204" class="cls-1" d="M107,280a.536.536,0,0,0,0,1.073h3.356a.536.536,0,0,0,0-1.073Z" transform="translate(-104.316 -272.49)"/>
      <path id="Path_31205" data-name="Path 31205" class="cls-1" d="M30.51,12.66H28.716a1.074,1.074,0,0,1-1.073-1.073V2.146a1.074,1.074,0,0,1,1.073-1.073h6.6a1.074,1.074,0,0,1,1.073,1.073v3.3a.536.536,0,0,0,1.073,0v-3.3A2.148,2.148,0,0,0,35.311,0h-6.6A2.148,2.148,0,0,0,26.57,2.146v9.441a2.148,2.148,0,0,0,2.146,2.146H30.51a.536.536,0,1,0,0-1.073Z" transform="translate(-26.57)"/>
      <path id="Path_31206" data-name="Path 31206" class="cls-1" d="M249.477,272.495a1.611,1.611,0,0,0-2.275,0l-2.945,2.939a.537.537,0,0,0-.134.224l-.641,2.112a.536.536,0,0,0,.657.673l2.165-.6a.537.537,0,0,0,.236-.137l2.939-2.933A1.611,1.611,0,0,0,249.477,272.495Zm-3.6,4.35-1.089.3.319-1.049,1.987-1.983.759.759Zm2.839-2.833-.1.1-.759-.759.1-.1a.536.536,0,0,1,.759.758Z" transform="translate(-237.64 -264.728)"/>
      <path id="Path_31207" data-name="Path 31207" class="cls-1" d="M112.521,120H107a.536.536,0,1,0,0,1.073h5.525a.536.536,0,1,0,0-1.073Z" transform="translate(-104.316 -116.781)"/>
    </g>
  </g>
</svg>
