<svg xmlns="http://www.w3.org/2000/svg" width="26.465" height="26.254" viewBox="0 0 26.465 26.254">
  <defs>
    <style>
      .cls-1 {
        fill: #6e6e6e;
      }
    </style>
  </defs>
  <g id="question-4" transform="translate(0 -0.332)">
    <path id="Path_31164" data-name="Path 31164" class="cls-1" d="M9.316,141.846a9.316,9.316,0,1,1,9.316-9.316A9.327,9.327,0,0,1,9.316,141.846Zm0-17.785a8.469,8.469,0,1,0,8.469,8.469A8.479,8.479,0,0,0,9.316,124.062Zm0,0" transform="translate(0 -115.261)"/>
    <path id="Path_31165" data-name="Path 31165" class="cls-1" d="M76.787,199.155a.847.847,0,1,1-.847-.847A.847.847,0,0,1,76.787,199.155Zm0,0" transform="translate(-70.436 -185.696)"/>
    <path id="Path_31166" data-name="Path 31166" class="cls-1" d="M199.667,199.155a.847.847,0,1,1-.847-.847A.847.847,0,0,1,199.667,199.155Zm0,0" transform="translate(-185.693 -185.696)"/>
    <path id="Path_31167" data-name="Path 31167" class="cls-1" d="M309.316,216.2a2.115,2.115,0,1,1,1.5-.622,2.573,2.573,0,0,1-.321.264,2.339,2.339,0,0,1-.368.193,2.056,2.056,0,0,1-.4.123A2.176,2.176,0,0,1,309.316,216.2Zm0-3.388a1.271,1.271,0,0,0-.9,2.171,1.281,1.281,0,0,0,.9.369,1.34,1.34,0,0,0,.251-.026,1.176,1.176,0,0,0,.234-.072,1.545,1.545,0,0,0,.228-.119,1.715,1.715,0,0,0,.195-.163,1.27,1.27,0,0,0-.908-2.161Zm0,0" transform="translate(-288.144 -198.502)"/>
    <path id="Path_31168" data-name="Path 31168" class="cls-1" d="M113.885,281.073H109.65a.423.423,0,1,1,0-.847h4.234a.423.423,0,1,1,0,.847Zm0,0" transform="translate(-102.451 -262.533)"/>
    <path id="Path_31169" data-name="Path 31169" class="cls-1" d="M261.293,13.036a2.12,2.12,0,0,1-2.117-2.117V8.8a2.12,2.12,0,0,1,2.117-2.117,1.059,1.059,0,1,0-1.059-1.059,2.117,2.117,0,0,1-4.234,0,5.293,5.293,0,1,1,7.41,4.851v.442A2.12,2.12,0,0,1,261.293,13.036Zm0-9.316a1.906,1.906,0,1,1,0,3.811,1.272,1.272,0,0,0-1.27,1.27v2.117a1.27,1.27,0,0,0,2.541,0v-.727a.423.423,0,0,1,.276-.4,4.446,4.446,0,1,0-5.992-4.169,1.27,1.27,0,1,0,2.541,0A1.908,1.908,0,0,1,261.293,3.72Zm0,0" transform="translate(-240.121)"/>
  </g>
</svg>
