<svg id="chat-comment-oval-speech-bubble-with-text-lines" xmlns="http://www.w3.org/2000/svg" width="15.975" height="15.975" viewBox="0 0 15.975 15.975">
  <defs>
    <style>
      .cls-1 {
        fill: #a3a3a3;
      }
    </style>
  </defs>
  <g id="_x32__26_">
    <g id="Group_11113" data-name="Group 11113">
      <path id="Path_31191" data-name="Path 31191" class="cls-1" d="M10.483,8.487H5.491a.5.5,0,0,0,0,1h4.992a.5.5,0,1,0,0-1Zm1-3H4.493a.5.5,0,1,0,0,1h6.989a.5.5,0,1,0,0-1ZM7.987,0C3.576,0,0,3.129,0,6.989A6.69,6.69,0,0,0,3,12.44v3.535l3.5-2.123a9.16,9.16,0,0,0,1.493.126c4.412,0,7.987-3.129,7.987-6.989S12.4,0,7.987,0Zm0,12.98A8.079,8.079,0,0,1,6.3,12.8L3.95,14.209l.031-2.315A5.788,5.788,0,0,1,1,6.989C1,3.681,4.127,1,7.987,1s6.989,2.682,6.989,5.991S11.847,12.98,7.987,12.98Z"/>
    </g>
  </g>
</svg>
