<svg xmlns="http://www.w3.org/2000/svg" width="16.771" height="16.771" viewBox="0 0 16.771 16.771">
  <defs>
    <style>
      .cls-1 {
        fill: #dbdbdb;
      }
    </style>
  </defs>
  <path id="shift" class="cls-1" d="M13.277,16.771H3.494a.7.7,0,0,1-.7-.7V9.783H.7A.7.7,0,0,1,.184,8.612L7.869.227a.7.7,0,0,1,1.03,0l7.689,8.385a.7.7,0,0,1-.515,1.171h-2.1v6.289a.7.7,0,0,1-.7.7Zm-9.084-1.4h8.385V9.084a.7.7,0,0,1,.7-.7h1.206l-6.1-6.653-6.1,6.653H3.494a.7.7,0,0,1,.7.7s0,6.289,0,6.289Z" transform="translate(16.771 16.771) rotate(180)"/>
</svg>
