<svg xmlns="http://www.w3.org/2000/svg" width="15.211" height="15.209" viewBox="0 0 15.211 15.209">
  <defs>
    <style>
      .cls-1 {
        fill: #a3a3a3;
      }
    </style>
  </defs>
  <g id="edit" transform="translate(0 -0.028)">
    <path id="Path_31265" data-name="Path 31265" class="cls-1" d="M.986,1.012a3.355,3.355,0,0,1,4.748,0l8.705,8.7a.435.435,0,0,1,.123.25l.645,4.777a.434.434,0,0,1-.123.366.443.443,0,0,1-.308.13.352.352,0,0,1-.058,0l-2.878-.389a.438.438,0,0,1,.117-.869l2.308.311-.45-3.332-3.507,3.507a.443.443,0,0,1-.308.13.429.429,0,0,1-.308-.13L.986,5.76a3.353,3.353,0,0,1,0-4.748ZM5.565,2.082,4.1,3.544l7.943,7.943,1.462-1.462ZM10,13.535l1.429-1.429L3.481,4.163,2.052,5.592ZM1.443,4.966l3.5-3.5a2.484,2.484,0,0,0-3.5,3.5Z" transform="translate(0 0)"/>
  </g>
</svg>
