<svg xmlns="http://www.w3.org/2000/svg" width="17.502" height="17.531" viewBox="0 0 17.502 17.531">
  <defs>
    <style>
      .cls-1 {
        fill: #1bb17f;
      }
    </style>
  </defs>
  <g id="followers-2" transform="translate(-0.439)">
    <g id="Group_11151" data-name="Group 11151" transform="translate(0.44)">
      <g id="Group_11150" data-name="Group 11150" transform="translate(0)">
        <path id="Path_31194" data-name="Path 31194" class="cls-1" d="M8.439,16.132H2.493a.684.684,0,0,1-.651-.893,5.274,5.274,0,0,1,5.011-3.568,5.113,5.113,0,0,1,2.939.922.684.684,0,1,0,.782-1.121,6.5,6.5,0,0,0-1.363-.728,3.48,3.48,0,0,0,1.132-2.3,5.146,5.146,0,0,1,6.524-.533.684.684,0,1,0,.782-1.121,6.5,6.5,0,0,0-1.363-.728,3.486,3.486,0,1,0-4.694-.008q-.143.055-.284.117a6.49,6.49,0,0,0-1.2.691A3.486,3.486,0,1,0,4.51,10.73,6.574,6.574,0,0,0,.54,14.82,2.051,2.051,0,0,0,2.493,17.5H8.44a.684.684,0,0,0,0-1.367Zm5.5-14.765a2.119,2.119,0,1,1-2.119,2.119A2.121,2.121,0,0,1,13.942,1.367ZM6.867,6.045A2.119,2.119,0,1,1,4.748,8.164,2.121,2.121,0,0,1,6.867,6.045Z" transform="translate(-0.44)"/>
        <path id="Path_31195" data-name="Path 31195" class="cls-1" d="M271.28,322.477a.684.684,0,0,0-.954.158l-3.369,4.706a.39.39,0,0,1-.562.029l-2.181-2.094a.684.684,0,0,0-.947.986l2.183,2.1a1.763,1.763,0,0,0,1.213.484q.058,0,.116,0a1.762,1.762,0,0,0,1.253-.653l.023-.03,3.383-4.725A.684.684,0,0,0,271.28,322.477Z" transform="translate(-254.065 -311.312)"/>
      </g>
    </g>
  </g>
</svg>
