<svg xmlns="http://www.w3.org/2000/svg" width="12.529" height="12.53" viewBox="0 0 12.529 12.53">
  <defs>
    <style>
      .cls-1 {
        fill: #9a9a9a;
      }
    </style>
  </defs>
  <g id="Group_11321" data-name="Group 11321" transform="translate(-845.286 -1981)">
    <path id="Path_31199" data-name="Path 31199" class="cls-1" d="M1.468,393.961a1.491,1.491,0,0,0,1.493-1.468A1.512,1.512,0,0,0,1.468,391,1.491,1.491,0,0,0,0,392.493,1.47,1.47,0,0,0,1.468,393.961Zm0,0" transform="translate(845.286 1599.568)"/>
    <path id="Path_31200" data-name="Path 31200" class="cls-1" d="M.367,241.468H1.1a4.122,4.122,0,0,1,4.087,4.087v.734a.367.367,0,0,0,.367.367h.734a.367.367,0,0,0,.367-.367v-.734A5.59,5.59,0,0,0,1.1,240H.367a.367.367,0,0,0-.367.367v.734A.367.367,0,0,0,.367,241.468Zm0,0" transform="translate(845.286 1746.873)"/>
    <path id="Path_31201" data-name="Path 31201" class="cls-1" d="M.367,121.468H1.1a7.058,7.058,0,0,1,7.023,7.023v.734a.367.367,0,0,0,.367.367h.734a.367.367,0,0,0,.367-.367v-.734A8.527,8.527,0,0,0,1.1,120H.367a.367.367,0,0,0-.367.367v.734A.367.367,0,0,0,.367,121.468Zm0,0" transform="translate(845.286 1863.937)"/>
    <path id="Path_31202" data-name="Path 31202" class="cls-1" d="M1.1,0H.367A.367.367,0,0,0,0,.367V1.1a.367.367,0,0,0,.367.367H1.1a9.995,9.995,0,0,1,9.96,9.96v.734a.367.367,0,0,0,.367.367h.734a.367.367,0,0,0,.367-.367v-.734A11.463,11.463,0,0,0,1.1,0Zm0,0" transform="translate(845.286 1981)"/>
  </g>
</svg>
