<svg xmlns="http://www.w3.org/2000/svg" width="18.15" height="14.033" viewBox="0 0 18.15 14.033">
  <defs>
    <style>
      .cls-1 {
        fill: #6e6e6e;
        stroke: #6e6e6e;
        stroke-width: 0.7px;
      }
    </style>
  </defs>
  <g id="graduation-cap" transform="translate(0.35 0.405)">
    <g id="Group_11267" data-name="Group 11267" transform="translate(0 0)">
      <path id="Path_31264" data-name="Path 31264" class="cls-1" d="M16.871,45.373l-6.956-3.4a2.849,2.849,0,0,0-2.219,0L.58,45.373a.857.857,0,0,0-.58.76c0,.18.08.5.58.76l.58.28v3.2a.979.979,0,0,0-.62.9.992.992,0,0,0,.6.9l-.9,2.859H2.759l-.9-2.859a.969.969,0,0,0-.02-1.8V47.512l1.059.52V52.19a.322.322,0,0,0,.06.18,7.26,7.26,0,0,0,5.757,2.659,7.219,7.219,0,0,0,5.737-2.659.322.322,0,0,0,.06-.18V48.052l2.359-1.159a.857.857,0,0,0,.58-.76A.894.894,0,0,0,16.871,45.373Zm-3,6.716a6.685,6.685,0,0,1-5.157,2.319A6.685,6.685,0,0,1,3.558,52.09V48.312L7.7,50.291a2.7,2.7,0,0,0,1.1.22,2.434,2.434,0,0,0,1.119-.24l3.958-1.939Zm2.719-5.757-2.4,1.179a.23.23,0,0,0-.22.12l-4.338,2.1a2.219,2.219,0,0,1-1.679,0L2.619,47.172l6.137-.72a.311.311,0,1,0-.06-.62l-7.116.84-.72-.34a.4.4,0,0,1-.22-.18c0-.02.04-.1.22-.18l7.116-3.418a2.065,2.065,0,0,1,.82-.16,2.026,2.026,0,0,1,.84.16l6.956,3.4c.18.08.22.16.22.2A.55.55,0,0,1,16.592,46.333Z" transform="translate(0 -41.75)"/>
    </g>
  </g>
</svg>
