<svg xmlns="http://www.w3.org/2000/svg" width="25.648" height="26.058" viewBox="0 0 25.648 26.058">
  <defs>
    <style>
      .cls-1 {
        fill: #6e6e6e;
      }
    </style>
  </defs>
  <g id="notifications" transform="translate(-4.023 0)">
    <path id="Path_31181" data-name="Path 31181" class="cls-1" d="M114.24,234.861a.382.382,0,0,0-.382.382v.816a.382.382,0,0,0,.763,0v-.816A.382.382,0,0,0,114.24,234.861Z" transform="translate(-104.245 -222.908)"/>
    <path id="Path_31182" data-name="Path 31182" class="cls-1" d="M281.162,234.861a.382.382,0,0,0-.382.382v.816a.382.382,0,1,0,.763,0v-.816A.382.382,0,0,0,281.162,234.861Z" transform="translate(-262.672 -222.908)"/>
    <path id="Path_31183" data-name="Path 31183" class="cls-1" d="M178.187,250.515a.382.382,0,0,0-.539.037,1.1,1.1,0,0,1-1.664,0,.382.382,0,1,0-.576.5,1.866,1.866,0,0,0,2.815,0A.382.382,0,0,0,178.187,250.515Z" transform="translate(-162.574 -237.676)"/>
    <path id="Path_31184" data-name="Path 31184" class="cls-1" d="M369.376,75.834a.382.382,0,0,0,.382-.382V71.136a.382.382,0,0,0-.382-.382h-1.031a.382.382,0,0,0,0,.763h.65v3.935A.382.382,0,0,0,369.376,75.834Z" transform="translate(-345.418 -67.153)"/>
    <path id="Path_31185" data-name="Path 31185" class="cls-1" d="M28.592,2.58a.382.382,0,1,0-.626.437A5.255,5.255,0,1,1,27,1.968a.382.382,0,1,0,.487-.588A6.018,6.018,0,0,0,18.1,3.687a6.7,6.7,0,0,0-1.413-.57,2.473,2.473,0,1,0-4.9,0,6.564,6.564,0,0,0-1.676.722A6.7,6.7,0,0,0,7.671,6.582c-1.211,2.385-1.439,5.588-1.5,8.112a5.53,5.53,0,0,1-.984,3.017,7.3,7.3,0,0,0-1.1,2.376A1.878,1.878,0,0,0,5.9,22.442h4.215a4.164,4.164,0,0,0,8.255,0h4.216A1.878,1.878,0,0,0,24.4,20.087a7.3,7.3,0,0,0-1.1-2.376,5.3,5.3,0,0,1-.446-.761h0a5.582,5.582,0,0,1-.538-2.256c-.027-1.063-.081-2-.165-2.848A6.019,6.019,0,0,0,28.592,2.58Zm-16.052.364a1.71,1.71,0,1,1,3.4,0,10.275,10.275,0,0,0-3.4,0Zm1.7,22.35a3.393,3.393,0,0,1-3.357-2.852H17.6a3.393,3.393,0,0,1-3.357,2.852Zm7.113-13.712c.319,2.843,0,3.57.581,5.151H10.987a.382.382,0,1,0,0,.763H22.275a6.058,6.058,0,0,0,.4.654,6.545,6.545,0,0,1,.985,2.129,1.114,1.114,0,0,1-1.075,1.4H5.9a1.114,1.114,0,0,1-1.076-1.4,6.543,6.543,0,0,1,.985-2.129,6.055,6.055,0,0,0,.4-.654H9.46a.382.382,0,0,0,0-.763H6.548a6.388,6.388,0,0,0,.383-2.02c.062-2.443.279-5.537,1.421-7.786a5.69,5.69,0,0,1,3.991-3.166,8.181,8.181,0,0,1,5.507.656,6.041,6.041,0,0,0,3.505,7.163Z" transform="translate(0 0)"/>
  </g>
</svg>
