<svg id="Layer_1" enable-background="new 0 0 512 512" height="512" viewBox="0 0 512 512" width="512" xmlns="http://www.w3.org/2000/svg"><circle cx="256" cy="256" fill="#fcc515" r="256"/><path d="m262.824 511.911c138.231-3.618 249.176-116.808 249.176-255.911 0-4.53-.118-9.031-.35-13.503l-85.213-85.213 27.701 91.196-111.988-111.988-276.412 167.401 104.559 104.559-4.264 6.667z" fill="#fa0"/><path d="m384.535 299.595-21.213-21.213c15.985-15.986 15.985-41.997 0-57.983l21.213-21.213c27.682 27.683 27.682 72.726 0 100.409z" fill="#fe6a16"/><path d="m374.784 255.905c-1.315 8.234-5.129 16.143-11.462 22.477l21.213 21.213c12.186-12.186 19.002-27.737 20.459-43.69z" fill="#f24500"/><path d="m426.437 341.497-21.213-21.213c18.936-18.936 29.365-44.113 29.365-70.893s-10.429-51.957-29.365-70.893l21.213-21.213c50.788 50.787 50.788 133.424 0 184.212z" fill="#fe6a16"/><path d="m434.374 255.905c-1.55 24.328-11.758 46.987-29.151 64.379l21.213 21.213c23.74-23.74 36.381-54.44 37.927-85.592z" fill="#f24500"/><path d="m187.262 287.014 31.819 93.896c7.151 21.101-8.54 42.985-30.82 42.985-14.231 0-26.812-9.248-31.058-22.83l-35.66-114.051z" fill="#414952"/><path d="m219.081 380.91-31.819-93.896h-33.659l34.873 136.875c22.164-.141 37.733-21.947 30.605-42.979z" fill="#414952"/><path d="m342.15 362.288-215.419-58.395v-109.005l215.419-58.396z" fill="#fff"/><path d="m126.731 255.905v47.988l215.419 58.395v-106.383z" fill="#e9edf5"/><path d="m342.15 136.492-215.419 58.396v61.017h215.419z" fill="#fff"/><path d="m65.738 194.888h60.993v109.005h-60.993z" fill="#fe6a16"/><path d="m65.738 255.905h60.993v47.988h-60.993z" fill="#f24500"/></svg>