<svg xmlns="http://www.w3.org/2000/svg" width="15.739" height="13.857" viewBox="0 0 15.739 13.857">
  <defs>
    <style>
      .cls-1 {
        fill: #6e6e6e;
        stroke: #6e6e6e;
        stroke-width: 0.2px;
      }
    </style>
  </defs>
  <path id="portfolio" class="cls-1" d="M15.087,1.821h-4.13V1.366A1.367,1.367,0,0,0,9.591,0H5.949A1.367,1.367,0,0,0,4.583,1.366v.455H.455A.456.456,0,0,0,0,2.276V12.292a1.367,1.367,0,0,0,1.366,1.366H14.174a1.367,1.367,0,0,0,1.366-1.366V2.284A.442.442,0,0,0,15.087,1.821ZM5.493,1.366A.456.456,0,0,1,5.949.91H9.591a.456.456,0,0,1,.455.455v.455H5.493Zm8.959,1.366L13.039,6.973a.454.454,0,0,1-.432.311H10.046V6.829a.455.455,0,0,0-.455-.455H5.949a.455.455,0,0,0-.455.455v.455H2.932A.454.454,0,0,1,2.5,6.973L1.087,2.731ZM9.135,7.284v.91H6.4v-.91Zm5.493,5.008a.456.456,0,0,1-.455.455H1.366a.456.456,0,0,1-.455-.455V5.082l.726,2.179a1.364,1.364,0,0,0,1.3.934H5.493V8.65a.455.455,0,0,0,.455.455H9.591a.455.455,0,0,0,.455-.455V8.194h2.561a1.364,1.364,0,0,0,1.3-.934l.726-2.179Zm0,0" transform="translate(0.099 0.1)"/>
</svg>
