<svg xmlns="http://www.w3.org/2000/svg" width="16.476" height="16.475" viewBox="0 0 16.476 16.475">
  <defs>
    <style>
      .cls-1 {
        fill: #a3a3a3;
        stroke: #a3a3a3;
        stroke-width: 0.5px;
      }
    </style>
  </defs>
  <g id="share-5" transform="translate(0.25 0.25)">
    <path id="Path_31188" data-name="Path 31188" class="cls-1" d="M44.731,17.449a7.131,7.131,0,0,0-3.225-7.71.275.275,0,1,0-.289.469,6.583,6.583,0,0,1,2.993,7.05,1.931,1.931,0,1,0,.521.191Zm-.914,3.074a1.377,1.377,0,1,1,1.377-1.377A1.379,1.379,0,0,1,43.817,20.523Z" transform="translate(-29.77 -7.027)"/>
    <path id="Path_31189" data-name="Path 31189" class="cls-1" d="M10.513,41.732A6.607,6.607,0,0,1,3.3,40.28a1.928,1.928,0,1,0-.441.335,7.154,7.154,0,0,0,7.865,1.626.275.275,0,1,0-.211-.509Zm-9.962-2.8a1.377,1.377,0,1,1,1.377,1.377A1.379,1.379,0,0,1,.551,38.928Z" transform="translate(0 -26.809)"/>
    <path id="Path_31190" data-name="Path 31190" class="cls-1" d="M3.326,8.6h.02a.275.275,0,0,0,.275-.256,6.576,6.576,0,0,1,4.743-5.87,1.925,1.925,0,1,0-.079-.55A7.126,7.126,0,0,0,3.071,8.3.275.275,0,0,0,3.326,8.6ZM10.212.551A1.377,1.377,0,1,1,8.835,1.928,1.379,1.379,0,0,1,10.212.551Z" transform="translate(-2.225)"/>
  </g>
</svg>
