<svg xmlns="http://www.w3.org/2000/svg" width="15.976" height="15.975" viewBox="0 0 15.976 15.975">
  <defs>
    <style>
      .cls-1 {
        fill: #a3a3a3;
      }
    </style>
  </defs>
  <path id="shift" class="cls-1" d="M12.647,15.975H3.329a.665.665,0,0,1-.666-.666V9.319h-2A.666.666,0,0,1,.175,8.2L7.5.216a.666.666,0,0,1,.982,0L15.8,8.2a.666.666,0,0,1-.491,1.115h-2v5.991a.665.665,0,0,1-.666.666ZM3.994,14.643h7.987V8.653a.665.665,0,0,1,.666-.666H13.8L7.986,1.65,2.179,7.987h1.15a.665.665,0,0,1,.666.666s0,5.991,0,5.991Z" transform="translate(0 0)"/>
</svg>
